<svg width="256" height="256" viewBox="0 0 256 256" fill="none" xmlns="http://www.w3.org/2000/svg">
<rect width="256" height="256" fill="url(#paint0_linear_831_37)"/>
<path d="M130.253 250.983C114.893 250.983 104.141 244.429 97.9968 231.322L115.507 220.723C116.941 223.283 118.118 225.229 119.04 226.56C119.962 227.789 121.293 228.967 123.034 230.093C124.877 231.219 126.976 231.783 129.331 231.783C133.12 231.783 135.987 230.81 137.933 228.864C139.878 226.919 140.851 223.386 140.851 218.266V145.152H162.355V218.573C162.355 229.325 159.488 237.415 153.754 242.842C148.019 248.269 140.186 250.983 130.253 250.983Z" fill="#323330"/>
<path d="M213.211 250.983C203.688 250.983 195.598 248.986 188.942 244.992C182.389 240.999 177.422 235.674 174.043 229.018L191.554 218.88C196.878 227.584 203.944 231.936 212.75 231.936C217.154 231.936 220.686 230.963 223.349 229.018C226.011 226.97 227.342 224.41 227.342 221.338C227.342 218.983 226.626 216.935 225.192 215.194C223.758 213.453 222.12 212.122 220.277 211.2C218.536 210.176 215.669 208.794 211.675 207.053L206.299 204.749C197.8 201.063 191.349 196.813 186.946 192C182.645 187.085 180.494 180.531 180.494 172.339C180.494 164.147 183.362 157.389 189.096 152.064C194.933 146.637 202.562 143.923 211.982 143.923C218.946 143.923 224.885 145.306 229.8 148.071C234.818 150.733 239.067 155.085 242.549 161.127L225.806 171.879C222.427 165.735 217.819 162.663 211.982 162.663C208.91 162.663 206.402 163.533 204.456 165.274C202.613 167.015 201.691 169.216 201.691 171.879C201.691 174.951 202.664 177.357 204.61 179.098C206.555 180.839 209.986 182.784 214.901 184.935L220.277 187.239C230.21 191.539 237.429 196.147 241.934 201.063C246.542 205.875 248.846 212.531 248.846 221.031C248.846 230.451 245.518 237.824 238.862 243.149C232.309 248.371 223.758 250.983 213.211 250.983Z" fill="#323330"/>
<path d="M140.973 140.8V122.829L119.507 84.2241H132.403L142.387 102.445C143.053 103.61 143.746 105.107 144.467 106.938C145.244 108.713 145.854 110.183 146.298 111.347L146.963 113.178C148.461 108.74 149.931 105.163 151.373 102.445L160.941 84.2241H172.838L152.704 121.997V140.8H140.973Z" fill="#323330"/>
<path d="M188.959 119.751C188.793 115.812 186.824 113.843 183.052 113.843C180.112 113.843 177.422 114.925 174.981 117.088L168.741 110.432C170.683 108.546 172.763 107.104 174.981 106.106C177.256 105.107 180.306 104.608 184.133 104.608C188.904 104.608 192.758 105.967 195.698 108.685C198.638 111.347 200.108 115.341 200.108 120.666V140.8H188.959L189.209 135.891C186.768 139.663 183.274 141.549 178.725 141.549C175.12 141.549 172.125 140.661 169.74 138.887C167.41 137.056 166.245 134.227 166.245 130.4C166.245 123.3 171.071 119.751 180.722 119.751H188.959ZM188.959 126.407H181.305C178.587 126.407 177.228 127.488 177.228 129.651C177.228 131.759 178.836 132.813 182.053 132.813C184.272 132.813 185.964 132.369 187.129 131.482C188.349 130.594 188.959 129.374 188.959 127.821V126.407Z" fill="#323330"/>
<path d="M219.933 130.567V140.8H208.701V80.7297H219.933V111.347C219.933 113.843 219.739 116.395 219.35 119.002L230.998 105.357H243.478L230.915 119.834L244.81 140.8H231.747L222.928 127.405L219.933 130.567Z" fill="#323330"/>
<defs>
<linearGradient id="paint0_linear_831_37" x1="25.6" y1="12.8" x2="211.2" y2="283.2" gradientUnits="userSpaceOnUse">
<stop stop-color="#F0DB4F"/>
<stop offset="1" stop-color="#FFEF81"/>
</linearGradient>
</defs>
</svg>
