<svg width="80" height="80" viewBox="0 0 80 80" fill="none" xmlns="http://www.w3.org/2000/svg">
<rect width="80" height="80" fill="url(#paint0_linear_831_37)"/>
<path d="M40.704 78.432C35.904 78.432 32.544 76.384 30.624 72.288L36.096 68.976C36.544 69.776 36.912 70.384 37.2 70.8C37.488 71.184 37.904 71.552 38.448 71.904C39.024 72.256 39.68 72.432 40.416 72.432C41.6 72.432 42.496 72.128 43.104 71.52C43.712 70.912 44.016 69.808 44.016 68.208V45.36H50.736V68.304C50.736 71.664 49.84 74.192 48.048 75.888C46.256 77.584 43.808 78.432 40.704 78.432ZM66.6285 78.432C63.6525 78.432 61.1245 77.808 59.0445 76.56C56.9965 75.312 55.4445 73.648 54.3885 71.568L59.8605 68.4C61.5245 71.12 63.7325 72.48 66.4845 72.48C67.8605 72.48 68.9645 72.176 69.7965 71.568C70.6285 70.928 71.0445 70.128 71.0445 69.168C71.0445 68.432 70.8205 67.792 70.3725 67.248C69.9245 66.704 69.4125 66.288 68.8365 66C68.2925 65.68 67.3965 65.248 66.1485 64.704L64.4685 63.984C61.8125 62.832 59.7965 61.504 58.4205 60C57.0765 58.464 56.4045 56.416 56.4045 53.856C56.4045 51.296 57.3005 49.184 59.0925 47.52C60.9165 45.824 63.3005 44.976 66.2445 44.976C68.4205 44.976 70.2765 45.408 71.8125 46.272C73.3805 47.104 74.7085 48.464 75.7965 50.352L70.5645 53.712C69.5085 51.792 68.0685 50.832 66.2445 50.832C65.2845 50.832 64.5005 51.104 63.8925 51.648C63.3165 52.192 63.0285 52.88 63.0285 53.712C63.0285 54.672 63.3325 55.424 63.9405 55.968C64.5485 56.512 65.6205 57.12 67.1565 57.792L68.8365 58.512C71.9405 59.856 74.1965 61.296 75.6045 62.832C77.0445 64.336 77.7645 66.416 77.7645 69.072C77.7645 72.016 76.7245 74.32 74.6445 75.984C72.5965 77.616 69.9245 78.432 66.6285 78.432Z" fill="#323330"/>
<path d="M44.054 44V38.384L37.346 26.32H41.376L44.496 32.014C44.704 32.378 44.9207 32.846 45.146 33.418C45.3887 33.9727 45.5793 34.432 45.718 34.796L45.926 35.368C46.394 33.9813 46.8533 32.8633 47.304 32.014L50.294 26.32H54.012L47.72 38.124V44H44.054ZM59.0497 37.422C58.9977 36.1913 58.3824 35.576 57.2037 35.576C56.285 35.576 55.4444 35.914 54.6817 36.59L52.7317 34.51C53.3384 33.9207 53.9884 33.47 54.6817 33.158C55.3924 32.846 56.3457 32.69 57.5417 32.69C59.0324 32.69 60.237 33.1147 61.1557 33.964C62.0744 34.796 62.5337 36.044 62.5337 37.708V44H59.0497L59.1277 42.466C58.365 43.6447 57.273 44.234 55.8517 44.234C54.725 44.234 53.789 43.9567 53.0437 43.402C52.3157 42.83 51.9517 41.946 51.9517 40.75C51.9517 38.5313 53.4597 37.422 56.4757 37.422H59.0497ZM59.0497 39.502H56.6577C55.8084 39.502 55.3837 39.84 55.3837 40.516C55.3837 41.1747 55.8864 41.504 56.8917 41.504C57.585 41.504 58.1137 41.3653 58.4777 41.088C58.859 40.8107 59.0497 40.4293 59.0497 39.944V39.502ZM68.729 40.802V44H65.219V25.228H68.729V34.796C68.729 35.576 68.6684 36.3733 68.547 37.188L72.187 32.924H76.087L72.161 37.448L76.503 44H72.421L69.665 39.814L68.729 40.802Z" fill="#323330"/>
<defs>
<linearGradient id="paint0_linear_831_37" x1="8" y1="4" x2="66" y2="88.5" gradientUnits="userSpaceOnUse">
<stop stop-color="#F0DB4F"/>
<stop offset="1" stop-color="#FFEF81"/>
</linearGradient>
</defs>
</svg>
